<?xml version="1.0" standalone="no"?><!DOCTYPE svg PUBLIC "-//W3C//DTD SVG 1.1//EN" "http://www.w3.org/Graphics/SVG/1.1/DTD/svg11.dtd"><svg t="1698654980399" class="icon" viewBox="0 0 1024 1024" version="1.1" xmlns="http://www.w3.org/2000/svg" p-id="4036" xmlns:xlink="http://www.w3.org/1999/xlink" width="200" height="200"><path d="M243.809524 268.190476v73.142857H170.666667v121.904762h682.666666v-121.904762h-73.142857v-73.142857h73.142857a73.142857 73.142857 0 0 1 73.142857 73.142857v487.619048a73.142857 73.142857 0 0 1-73.142857 73.142857H170.666667a73.142857 73.142857 0 0 1-73.142857-73.142857V341.333333a73.142857 73.142857 0 0 1 73.142857-73.142857h73.142857z m609.523809 268.190476h-219.428571v146.285715H390.095238v-146.285715H170.666667v292.571429h682.666666V536.380952z m-292.571428 0h-97.52381v73.142858h97.52381v-73.142858z m97.523809-438.857142a73.142857 73.142857 0 0 1 73.142857 73.142857v170.666666H292.571429V170.666667a73.142857 73.142857 0 0 1 73.142857-73.142857h292.571428z m0 73.142857H365.714286v97.523809h292.571428V170.666667z" p-id="4037" fill="#ffffff"></path></svg>